<svg width="500" height="90" viewBox="0 0 500 90" fill="none" xmlns="http://www.w3.org/2000/svg">
    <path d="M483.728 80.1296C474.218 80.1296 467.949 75.3476 467.596 67.6823H477.67C477.881 70.2843 480.206 71.7611 483.939 71.7611C487.461 71.7611 489.856 70.4953 489.856 68.3856C489.856 66.2758 488.166 65.5023 482.319 64.6584C472.457 63.3223 468.019 59.7358 468.019 53.1957C468.019 45.882 474.429 41.3813 483.657 41.3813C492.392 41.3813 498.662 46.2337 499.084 53.3363H489.363C489.011 51.0157 486.968 49.7498 483.516 49.7498C480.065 49.7498 478.163 50.875 478.163 52.9144C478.163 55.0241 480.135 56.0086 485.841 56.7822C494.999 57.9074 500 61.3532 500 68.1746C500 75.6289 493.308 80.1296 483.728 80.1296Z"
          fill="#6F2AE5"/>
    <path d="M453.442 79.4264L441.96 63.041V79.4264H431.886V30.2H441.96V58.1184L452.667 42.1549H464.008V43.0691L451.751 60.1577L465.206 78.5122V79.4264H453.442Z"
          fill="#6F2AE5"/>
    <path d="M406.36 80.1999C394.807 80.1999 386.354 72.0424 386.354 60.7906C386.354 49.5389 394.807 41.3813 406.36 41.3813C417.983 41.3813 426.365 49.5389 426.365 60.7906C426.365 72.0424 417.983 80.1999 406.36 80.1999ZM396.568 60.7906C396.568 66.5571 400.724 70.7765 406.36 70.7765C411.995 70.7765 416.151 66.5571 416.151 60.7906C416.151 55.0241 411.995 50.8047 406.36 50.8047C400.724 50.8047 396.568 55.0241 396.568 60.7906Z"
          fill="#6F2AE5"/>
    <path d="M362.333 80.1999C350.781 80.1999 342.328 72.0424 342.328 60.7906C342.328 49.5389 350.781 41.3813 362.333 41.3813C373.956 41.3813 382.339 49.5389 382.339 60.7906C382.339 72.0424 373.956 80.1999 362.333 80.1999ZM352.542 60.7906C352.542 66.5571 356.698 70.7765 362.333 70.7765C367.969 70.7765 372.125 66.5571 372.125 60.7906C372.125 55.0241 367.969 50.8047 362.333 50.8047C356.698 50.8047 352.542 55.0241 352.542 60.7906Z"
          fill="#6F2AE5"/>
    <path d="M319.775 80.1999C315.055 80.1999 310.758 78.5122 307.518 75.6992L307.166 79.4264H298.431V30.2H308.504V45.1085C311.604 42.7175 315.478 41.3814 319.775 41.3814C330.553 41.3814 338.372 49.5389 338.372 60.7907C338.372 71.6205 330.905 80.1999 319.775 80.1999ZM308.434 60.7907C308.434 66.6275 312.59 70.7766 318.366 70.7766C324.072 70.7766 328.228 66.6275 328.228 60.7907C328.228 54.9538 324.072 50.8047 318.366 50.8047C312.59 50.8047 308.434 54.9538 308.434 60.7907Z"
          fill="#6F2AE5"/>
    <path d="M252.478 79.4263V42.1549H261.988L262.27 46.5853C265.158 43.2801 269.244 41.4517 274.245 41.4517C283.966 41.4517 288.686 47.7808 288.686 57.837V79.4263H278.612V58.9622C278.612 53.6176 276.006 50.7344 271.286 50.7344C266.003 50.7344 262.552 53.8989 262.552 59.1732V79.4263H252.478Z"
          fill="#6F2AE5"/>
    <path d="M226.531 80.1999C215.189 80.1999 206.877 72.0424 206.877 60.7906C206.877 49.5389 215.189 41.3813 226.531 41.3813C239.14 41.3813 247.523 51.086 245.832 64.0958H217.162C218.289 68.4559 221.741 71.0578 226.531 71.0578C229.771 71.0578 232.589 69.792 234.068 67.823H244.987C242.38 75.4179 235.195 80.1999 226.531 80.1999ZM217.232 57.2744H235.97C234.843 53.1957 231.532 50.5234 226.531 50.5234C221.811 50.5234 218.43 53.1254 217.232 57.2744Z"
          fill="#6F2AE5"/>
    <path d="M193.548 79.4264L182.066 63.041V79.4264H171.992V30.2H182.066V58.1184L192.773 42.1549H204.114V43.0691L191.857 60.1577L205.312 78.5122V79.4264H193.548Z"
          fill="#6F2AE5"/>
    <path d="M145.365 80.1999C133.813 80.1999 125.36 72.0424 125.36 60.7906C125.36 49.5389 133.813 41.3813 145.365 41.3813C156.988 41.3813 165.371 49.5389 165.371 60.7906C165.371 72.0424 156.988 80.1999 145.365 80.1999ZM135.574 60.7906C135.574 66.5571 139.73 70.7765 145.365 70.7765C151.001 70.7765 155.157 66.5571 155.157 60.7906C155.157 55.0241 151.001 50.8047 145.365 50.8047C139.73 50.8047 135.574 55.0241 135.574 60.7906Z"
          fill="#6F2AE5"/>
    <path d="M114.522 80.0593C106.069 80.0593 100.997 75.9102 100.997 66.9088V50.7344H94.3754V42.1549H100.997V34.2084L111.07 33.1535V42.1549H120.087V50.7344H111.07V65.7836C111.07 69.7217 113.113 71.1282 116.987 71.1282C118.114 71.1282 119.312 71.0579 120.58 70.8469V79.4264C118.467 79.8483 116.353 80.0593 114.522 80.0593Z"
          fill="#6F2AE5"/>
    <path d="M40.0676 20C40.0676 31.0457 31.0982 40 20.0338 40C8.96945 40 0 31.0457 0 20C0 8.9543 8.96945 0 20.0338 0C31.0982 0 40.0676 8.9543 40.0676 20Z"
          fill="#6422DA"/>
    <path d="M20.0338 24C20.0338 21.7909 21.8247 20 24.0338 20H76.1353C78.3444 20 80.1353 21.7909 80.1353 24V86C80.1353 88.2091 78.3444 90 76.1353 90H24.0338C21.8247 90 20.0338 88.2091 20.0338 86V24Z"
          fill="#E0CDF2"/>
    <path d="M29.049 42.5C29.049 41.6716 29.7206 41 30.549 41H62.6082C63.4366 41 64.1082 41.6716 64.1082 42.5C64.1082 43.3284 63.4366 44 62.6082 44H30.549C29.7206 44 29.049 43.3284 29.049 42.5Z"
          fill="#6422DA"/>
    <path d="M29.049 54.5C29.049 53.6716 29.7206 53 30.549 53H69.6201C70.4485 53 71.1201 53.6716 71.1201 54.5C71.1201 55.3284 70.4485 56 69.6201 56H30.549C29.7206 56 29.049 55.3284 29.049 54.5Z"
          fill="#6422DA"/>
    <path d="M29.049 30.5C29.049 29.6716 29.7206 29 30.549 29H69.6201C70.4485 29 71.1201 29.6716 71.1201 30.5C71.1201 31.3284 70.4485 32 69.6201 32H30.549C29.7206 32 29.049 31.3284 29.049 30.5Z"
          fill="#6422DA"/>
    <path d="M29.049 66.5C29.049 65.6716 29.7206 65 30.549 65H65.6133C66.4417 65 67.1133 65.6716 67.1133 66.5C67.1133 67.3284 66.4417 68 65.6133 68H30.549C29.7206 68 29.049 67.3284 29.049 66.5Z"
          fill="#6422DA"/>
    <path d="M29.049 78.5C29.049 77.6716 29.7206 77 30.549 77H57.5998C58.4282 77 59.0998 77.6716 59.0998 78.5C59.0998 79.3284 58.4282 80 57.5998 80H30.549C29.7206 80 29.049 79.3284 29.049 78.5Z"
          fill="#6422DA"/>
    <path d="M20.0338 40C31.0982 40 40.0676 31.0457 40.0676 20H24.0406C21.8277 20 20.0338 21.7909 20.0338 24V40Z"
          fill="#C844FF"/>
    <path d="M37.9294 29C37.3949 30.0573 36.7691 31.0607 36.0623 32H30.5516C29.7217 32 29.049 31.3284 29.049 30.5C29.049 29.6716 29.7217 29 30.5516 29H37.9294Z"
          fill="#6422DA"/>
</svg>
